<svg width="813" height="1213" viewBox="0 0 813 1213" fill="none" xmlns="http://www.w3.org/2000/svg">
<path d="M751.07 1110.06L317.68 1210.1C275.05 1219.94 232.12 1193.11 222.28 1150.48L2.38007 197.87C-7.45993 155.24 19.3701 112.31 62.0001 102.47L495.39 2.41999C538.02 -7.42001 580.95 19.41 590.79 62.04L810.7 1014.66C820.53 1057.29 793.7 1100.22 751.07 1110.06Z" fill="#212121"/>
<path d="M563.32 76.11L778.13 1006.65C785.42 1038.22 765.73 1069.96 734.41 1077.19L318.27 1173.25C286.94 1180.48 255.35 1160.58 248.06 1129.01L33.24 198.47C25.95 166.9 45.63 135.16 76.95 127.93L493.09 31.87C524.42 24.64 556.03 44.54 563.32 76.11Z" fill="#BCC0C4"/>
<path d="M493.1 31.87L323.41 1172.06L318.26 1173.25C286.93 1180.48 255.34 1160.58 248.05 1129.01L33.24 198.47C25.95 166.9 45.63 135.16 76.95 127.93L493.1 31.87Z" fill="#E4E4E4"/>
<path d="M396.49 90.62L189.55 138.39C184.46 139.56 179.34 136.36 178.16 131.27L169.6 94.2C168.43 89.11 171.63 83.99 176.72 82.81L383.66 35.04C388.75 33.87 393.87 37.07 395.05 42.16L403.61 79.23C404.78 84.32 401.58 89.44 396.49 90.62Z" fill="#212121"/>
<path fill-rule="evenodd" clip-rule="evenodd" d="M217.18 421.52L506.95 362.64C560.3 351.8 612.33 386.26 623.17 439.6L682.05 729.37C692.89 782.72 658.43 834.75 605.09 845.59L315.32 904.47C261.97 915.31 209.94 880.85 199.11 827.51L140.23 537.74C129.38 484.39 163.84 432.35 217.18 421.52Z" fill="white"/>
<path fill-rule="evenodd" clip-rule="evenodd" d="M504.68 644.87C533.77 581.38 512 514.92 500.44 507.26C488.88 499.6 410.53 505.68 364.25 563.99C317.97 622.3 294.21 670.51 299.58 674.07C299.95 674.31 301.89 672.49 305.12 669.45C320.97 654.57 367.71 610.67 410.14 640.48C452.88 670.52 433.79 729.84 427.59 749.13C426.38 752.89 425.66 755.12 425.98 755.33C432.29 759.53 475.59 708.35 504.68 644.87ZM477.77 614.51C491.45 585.94 487.43 555.37 473.37 546.07C459.31 536.77 428.31 545.03 405.89 573.26C385.9 598.42 388.06 597.66 389.86 597.03C390.08 596.95 390.3 596.88 390.47 596.85C394 596.29 411.8 595.92 431.76 608.93C451.72 621.94 459.71 643.98 459.71 643.98C459.71 643.98 464.09 643.08 477.77 614.51Z" fill="black"/>
<path fill-rule="evenodd" clip-rule="evenodd" d="M356.57 649.29C360.5 658.48 368.18 668.23 367.61 683.02C367.45 687.23 366.45 692.97 362.93 699.54C359.16 706.57 352.52 714.34 350.88 719.93C347.83 730.26 349.3 740.2 349.3 740.2C349.3 740.2 337.37 742.05 327.75 735.43C307.04 721.19 317.33 697.71 319.44 694.63C326.39 684.52 336.63 669.63 351.07 648.62C351.52 647.97 355.45 646.69 356.57 649.29Z" fill="url(#paint0_linear_6_35)"/>
<path fill-rule="evenodd" clip-rule="evenodd" d="M371.5 777.48C367.57 768.29 359.89 758.54 360.46 743.75C360.62 739.54 361.62 733.8 365.14 727.23C368.91 720.2 375.55 712.43 377.19 706.84C380.24 696.51 378.77 686.57 378.77 686.57C378.77 686.57 390.7 684.73 400.32 691.34C421.03 705.58 410.74 729.06 408.63 732.14C401.68 742.25 391.44 757.14 377 778.15C376.54 778.8 372.61 780.08 371.5 777.48Z" fill="url(#paint1_linear_6_35)"/>
<defs>
<linearGradient id="paint0_linear_6_35" x1="359.736" y1="733.218" x2="325.634" y2="662.813" gradientUnits="userSpaceOnUse">
<stop stop-color="#F3D874"/>
<stop offset="1" stop-color="#EC6F31"/>
</linearGradient>
<linearGradient id="paint1_linear_6_35" x1="392.204" y1="769.764" x2="382.951" y2="705.179" gradientUnits="userSpaceOnUse">
<stop stop-color="#F3D874"/>
<stop offset="1" stop-color="#EC6E31"/>
</linearGradient>
</defs>
</svg>
